<?xml version="1.0" encoding="UTF-8"?><svg id="uuid-fcee2594-0e51-48ec-bc40-39106558b25c" xmlns="http://www.w3.org/2000/svg" viewBox="0 0 751.5 169.9"><path d="M226.9,85.5v-.8c0,0,.6-.3.6-.3-.2.8-.2.6-.6,1.1Z" style="fill:#fff;"/><path d="M226.3,84.7c-1.3.9-.8,0-1.1,0h1.1Z" style="fill:#fff;"/><path d="M224.7,92.2h13.9c2.7,0,5.1.5,7,1.4,2,.9,3.5,2.3,4.6,4.1,1.1,1.8,1.6,4.1,1.6,6.7s-.3,4.3-.9,5.8c-.6,1.6-1.4,2.8-2.5,3.9s-2.3,1.8-3.7,2.5l-3.1,1.8h-10.9v-7.5c0,0,7.6,0,7.6,0,.9,0,1.6-.2,2.2-.7.6-.4,1-1.1,1.3-1.9.3-.8.4-1.8.4-3s-.1-2.2-.4-3-.7-1.5-1.2-1.9c-.5-.4-1.2-.7-2-.7h-4.3v33h-9.5v-40.5ZM242.6,132.7l-7.2-17.9h10.1c0,0,7.3,17.5,7.3,17.5v.4h-10.2Z" style="fill:#fff;"/><path d="M266.5,92.2v40.5h-9.5v-40.5h9.5ZM281,92.2v7.5h-17.8v-7.5h17.8ZM278.6,108.3v7.3h-15.4v-7.3h15.4ZM280.9,125.2v7.5h-17.7v-7.5h17.7Z" style="fill:#fff;"/><path d="M313.9,92.2v40.5h-9.5l-10.2-25.2v25.2h-9.5v-40.5h9.5l10.2,25.2v-25.2h9.5Z" style="fill:#fff;"/><path d="M348.9,109.4v6.1c0,2.9-.4,5.5-1.1,7.7-.7,2.2-1.8,4.1-3.1,5.6-1.3,1.5-2.9,2.6-4.7,3.4-1.8.8-3.9,1.1-6.1,1.1s-4.3-.4-6.1-1.1c-1.8-.8-3.4-1.9-4.8-3.4-1.3-1.5-2.4-3.3-3.1-5.6-.7-2.2-1.1-4.8-1.1-7.7v-6.1c0-2.9.4-5.5,1.1-7.7s1.7-4.1,3.1-5.6c1.3-1.5,2.9-2.6,4.7-3.4,1.8-.8,3.9-1.1,6.1-1.1s4.3.4,6.1,1.1c1.8.8,3.4,1.9,4.7,3.4,1.3,1.5,2.3,3.3,3.1,5.6.7,2.2,1.1,4.8,1.1,7.7ZM339.2,115.5v-6.2c0-1.8-.1-3.4-.3-4.6s-.6-2.3-1-3.1c-.4-.8-1-1.4-1.7-1.8-.7-.4-1.5-.6-2.4-.6s-1.8.2-2.4.6c-.7.4-1.2,1-1.7,1.8-.4.8-.8,1.8-1,3.1-.2,1.3-.3,2.8-.3,4.6v6.2c0,1.8.1,3.3.3,4.6.2,1.3.5,2.3,1,3.1.4.8,1,1.4,1.7,1.8.7.4,1.5.6,2.4.6s1.7-.2,2.4-.6,1.2-1,1.7-1.8c.4-.8.8-1.9,1-3.1.2-1.3.3-2.8.3-4.6Z" style="fill:#fff;"/><path d="M361.4,92.2l5.5,37.1-2.2,3.4h-5.9l-6.8-40.5h9.4ZM361.6,129l6.5-36.8h4.6l3,3.1-7,37.4h-5.1l-1.9-3.7ZM376.2,92.2l6.7,37.1-2.1,3.5h-5.1l-7.2-37.4,3.1-3.1h4.5ZM377.6,129.1l5.5-36.9h9.4l-6.8,40.5h-5.9l-2.1-3.6Z" style="fill:#fff;"/><path d="M425.4,92.2v40.5h-9.5l-10.2-25.2v25.2h-9.5v-40.5h9.5l10.2,25.2v-25.2h9.5Z" style="fill:#fff;"/><path d="M440.4,92.2v40.5h-9.5v-40.5h9.5ZM454.9,92.2v7.5h-17.8v-7.5h17.8ZM452.5,108.3v7.3h-15.4v-7.3h15.4ZM454.9,125.2v7.5h-17.7v-7.5h17.7Z" style="fill:#fff;"/><path d="M468.3,92.2v40.5h-9.5v-40.5h9.5ZM470.1,132.7h-7.4v-7.5h7.4c1.4,0,2.5-.3,3.4-.9s1.5-1.6,2-3c.4-1.4.6-3.3.6-5.7v-6.2c0-1.8-.1-3.3-.3-4.5-.2-1.2-.6-2.2-1.1-3-.5-.7-1.1-1.3-1.9-1.6s-1.7-.5-2.8-.5h-7.4v-7.5h7.4c2.4,0,4.5.4,6.5,1.2s3.6,1.9,5,3.4c1.4,1.5,2.5,3.3,3.3,5.4s1.1,4.5,1.1,7.2v6.2c0,2.7-.4,5.1-1.1,7.2-.8,2.1-1.8,3.9-3.2,5.4-1.4,1.5-3.1,2.6-5,3.4-1.9.8-4,1.2-6.4,1.2Z" style="fill:#fff;"/><path d="M503.9,92.2h13.9c2.7,0,5.1.5,7,1.4,2,.9,3.5,2.3,4.6,4.1,1.1,1.8,1.6,4.1,1.6,6.7s-.3,4.3-.9,5.8c-.6,1.6-1.4,2.8-2.5,3.9-1.1,1-2.3,1.8-3.7,2.5l-3.1,1.8h-10.9v-7.5c0,0,7.6,0,7.6,0,.9,0,1.6-.2,2.2-.7s1-1.1,1.3-1.9c.3-.8.4-1.8.4-3s-.1-2.2-.4-3c-.3-.8-.7-1.5-1.2-1.9-.5-.4-1.2-.7-2-.7h-4.3v33h-9.5v-40.5ZM521.9,132.7l-7.2-17.9h10.1c0,0,7.3,17.5,7.3,17.5v.4h-10.2Z" style="fill:#fff;"/><path d="M545.7,92.2v40.5h-9.5v-40.5h9.5ZM560.2,92.2v7.5h-17.8v-7.5h17.8ZM557.8,108.3v7.3h-15.4v-7.3h15.4ZM560.1,125.2v7.5h-17.7v-7.5h17.7Z" style="fill:#fff;"/><path d="M582.9,119h9.5c0,3-.6,5.6-1.8,7.8-1.2,2.1-2.9,3.8-5.1,4.9s-4.7,1.6-7.6,1.6-4.4-.4-6.3-1.2c-1.8-.8-3.3-2-4.6-3.6s-2.2-3.4-2.8-5.7c-.6-2.2-.9-4.7-.9-7.6v-5.6c0-2.8.3-5.3,1-7.5.7-2.2,1.6-4.1,2.9-5.7,1.3-1.6,2.8-2.7,4.6-3.6,1.8-.8,3.8-1.2,6-1.2s5.7.6,7.9,1.7c2.1,1.2,3.8,2.8,4.9,5,1.1,2.2,1.8,4.8,1.8,7.8h-9.5c0-1.8,0-3.1-.3-4.2-.3-1-.9-1.7-1.7-2.1-.8-.4-1.8-.6-3.1-.6s-1.6.2-2.3.5c-.6.4-1.1.9-1.5,1.7-.4.8-.6,1.9-.8,3.2-.2,1.3-.2,2.9-.2,4.8v5.7c0,1.9,0,3.6.2,4.9.1,1.3.4,2.4.7,3.2.4.8.9,1.4,1.5,1.7.6.4,1.5.5,2.5.5s2-.2,2.8-.5c.8-.4,1.3-1,1.7-2,.4-1,.5-2.3.4-4.1Z" style="fill:#fff;"/><path d="M606.6,92.2v40.5h-9.5v-40.5h9.5Z" style="fill:#fff;"/><path d="M626.8,118.9h-8.1v-7.5h8.1c.9,0,1.7-.2,2.3-.7.6-.5,1-1.1,1.3-1.9.3-.8.4-1.8.4-2.8s-.1-2.1-.4-3.1c-.3-.9-.7-1.7-1.3-2.3-.6-.6-1.4-.9-2.3-.9h-4.6v33h-9.5v-40.5h14.1c2.8,0,5.2.6,7.2,1.8,2,1.2,3.6,2.8,4.7,4.9s1.7,4.4,1.7,7.1-.6,4.9-1.7,6.8-2.7,3.5-4.7,4.6c-2,1.1-4.4,1.6-7.2,1.6Z" style="fill:#fff;"/><path d="M654.9,92.2v40.5h-9.5v-40.5h9.5ZM669.4,92.2v7.5h-17.8v-7.5h17.8ZM667,108.3v7.3h-15.4v-7.3h15.4ZM669.3,125.2v7.5h-17.7v-7.5h17.7Z" style="fill:#fff;"/><path d="M690.2,121.9c0-.6,0-1.2-.2-1.7-.1-.5-.4-1-.7-1.4s-.9-.9-1.5-1.3c-.7-.5-1.6-.9-2.8-1.4-1.4-.6-2.9-1.3-4.3-2-1.4-.8-2.6-1.6-3.7-2.6-1.1-1-2-2.2-2.7-3.6-.7-1.4-1-3-1-4.8s.3-3.3,1-4.7c.7-1.4,1.6-2.6,2.8-3.6,1.2-1,2.6-1.8,4.2-2.3,1.6-.5,3.4-.8,5.3-.8s4.8.5,6.8,1.5c2,1,3.5,2.5,4.6,4.4,1.1,1.9,1.7,4.1,1.7,6.7h-9.5c0-1-.1-1.9-.4-2.7s-.7-1.4-1.2-1.8-1.3-.7-2.2-.7-1.5.2-2,.6c-.5.4-1,.9-1.2,1.5-.3.6-.4,1.3-.4,2s.1,1.2.4,1.7.7,1,1.2,1.4c.5.4,1.1.8,1.7,1.2.7.4,1.4.8,2.1,1.1,1.8.7,3.5,1.5,4.9,2.3,1.4.8,2.6,1.8,3.6,2.9s1.7,2.3,2.2,3.6c.5,1.4.7,2.9.7,4.6s-.3,3.4-.9,4.8c-.6,1.4-1.4,2.6-2.5,3.6-1.1,1-2.5,1.7-4,2.2-1.6.5-3.3.8-5.3.8s-3.6-.3-5.3-.8c-1.7-.5-3.3-1.3-4.7-2.4-1.4-1.1-2.5-2.5-3.4-4.3-.8-1.7-1.3-3.8-1.3-6.2h9.6c0,1.2,0,2.2.3,3,.2.8.5,1.5.9,2,.4.5.9.8,1.5,1.1.6.2,1.4.3,2.3.3s1.5-.2,2-.5c.5-.4.8-.8,1-1.4.2-.6.3-1.3.3-2Z" style="fill:#fff;"/><path d="M229.1,47v32.4h-3.1v-32.4h3.1ZM246.9,47l-12.4,15.1-6.4,7-.4-3.6,5-6.1,10.4-12.4h3.8ZM244.1,79.4l-11.7-16.3,2.1-2.6,13.4,18.9h-3.8Z" style="fill:#fff;"/><path d="M275.2,47v32.4h-3.1l-16-27.1v27.1h-3.1v-32.4h3.1l16,27.1v-27.1h3.1Z" style="fill:#fff;"/><path d="M305.4,61.6v3.1c0,2.3-.3,4.4-.8,6.2-.5,1.9-1.3,3.5-2.3,4.8-1,1.3-2.2,2.3-3.6,3-1.4.7-3,1.1-4.8,1.1s-3.3-.4-4.7-1.1c-1.4-.7-2.6-1.7-3.7-3-1-1.3-1.8-2.9-2.4-4.8-.6-1.9-.8-3.9-.8-6.2v-3.1c0-2.3.3-4.4.8-6.3.5-1.9,1.3-3.4,2.4-4.8,1-1.3,2.2-2.3,3.6-3,1.4-.7,3-1.1,4.7-1.1s3.4.4,4.8,1.1c1.4.7,2.6,1.7,3.7,3,1,1.3,1.8,2.9,2.3,4.8.5,1.9.8,3.9.8,6.3ZM302.3,64.7v-3.2c0-1.9-.2-3.6-.6-5-.4-1.5-.9-2.8-1.7-3.8-.7-1.1-1.6-1.9-2.7-2.4s-2.3-.8-3.6-.8-2.5.3-3.5.8-1.9,1.4-2.7,2.4-1.3,2.3-1.7,3.8c-.4,1.5-.6,3.2-.6,5v3.2c0,1.9.2,3.6.6,5.1s1,2.8,1.7,3.8c.7,1.1,1.6,1.9,2.7,2.4,1,.6,2.2.8,3.5.8s2.6-.3,3.6-.8,1.9-1.4,2.7-2.4,1.3-2.3,1.7-3.8c.4-1.5.6-3.2.6-5.1Z" style="fill:#fff;"/><path d="M313.9,47l7.7,13.4,7.8-13.4h3.7l-9.6,16,9.9,16.4h-3.7l-8.1-13.7-8,13.7h-3.7l9.9-16.4-9.6-16h3.7Z" style="fill:#fff;"/><path d="M339.4,47l8.3,26.4,1.5,6h-2.4l-10.8-32.4h3.3ZM348.9,73.4l8.4-26.4h3.3l-10.8,32.4h-2.4l1.5-6Z" style="fill:#fff;"/><path d="M369.4,47v32.4h-3.1v-32.4h3.1Z" style="fill:#fff;"/><path d="M381.2,47v32.4h-3.1v-32.4h3.1ZM395.3,76.5v2.9h-15.1v-2.9h15.1Z" style="fill:#fff;"/><path d="M404.1,47v32.4h-3.1v-32.4h3.1ZM418.3,76.5v2.9h-15.1v-2.9h15.1Z" style="fill:#fff;"/><path d="M427.1,47v32.4h-3.1v-32.4h3.1ZM442.3,47v2.9h-16.2v-2.9h16.2ZM440.4,61.1v2.9h-14.2v-2.9h14.2ZM442.4,76.5v2.9h-16.2v-2.9h16.2Z" style="fill:#fff;"/><path d="M451.6,36.6v3.2c0,1.1-.1,2.2-.4,3.3-.3,1.1-.7,2.1-1.2,3.1-.5,1-1.1,1.8-1.8,2.6l-1.8-1.5c.7-1.2,1.3-2.3,1.6-3.5.4-1.2.6-2.5.6-4v-3.3h3.1Z" style="fill:#fff;"/><path d="M474.6,71.3c0-.8-.1-1.6-.4-2.2-.2-.7-.6-1.3-1.2-1.8-.6-.5-1.3-1-2.3-1.5-.9-.5-2.1-.9-3.5-1.3-1.5-.4-2.9-.9-4.1-1.5-1.2-.5-2.2-1.2-3.1-1.9-.9-.7-1.5-1.6-2-2.6-.5-1-.7-2.1-.7-3.5s.2-2.4.7-3.5,1.2-1.9,2.1-2.7c.9-.7,2-1.3,3.2-1.7,1.2-.4,2.5-.6,4-.6,2.1,0,3.9.4,5.4,1.3,1.5.9,2.7,2,3.5,3.5.8,1.5,1.2,3.1,1.2,5h-3.1c0-1.3-.3-2.5-.8-3.5-.5-1-1.4-1.9-2.4-2.4-1.1-.6-2.3-.9-3.9-.9s-2.8.3-3.8.8c-1,.5-1.8,1.2-2.3,2s-.8,1.8-.8,2.8.1,1.4.4,2,.7,1.2,1.3,1.7c.6.5,1.4,1,2.4,1.5s2.2.9,3.6,1.3c1.5.4,2.8,1,4,1.5,1.2.6,2.2,1.2,3,2,.8.8,1.5,1.7,1.9,2.7.4,1,.7,2.2.7,3.5s-.2,2.5-.8,3.6c-.5,1.1-1.2,2-2.1,2.7-.9.7-2,1.3-3.2,1.7s-2.6.6-4,.6-2.7-.2-4-.6c-1.3-.4-2.5-1-3.6-1.8-1.1-.8-1.9-1.8-2.6-3.1-.6-1.3-1-2.8-1-4.5h3.1c0,1.3.2,2.4.7,3.3.5.9,1.1,1.6,1.8,2.2.8.5,1.6.9,2.6,1.2.9.3,1.9.4,2.9.4,1.5,0,2.7-.2,3.8-.7,1-.5,1.9-1.2,2.4-2,.6-.9.8-1.8.8-3Z" style="fill:#fff;"/><path d="M66.6,80.8h0c0,.1,0,.4.1.5.3.5.7,1,1.2,1.3.3,0,.1-.4,0-.5-.3-.6-.9-1-1.4-1.3Z" style="fill:#fff;"/><path d="M72.7,86.2c-.6-.6-1.3-1-1.9-1.6h0c-.6-.7-1.3-1.5-2.1-1.9-.2,0,0,.4.5,1,.3.4.7.8,1.1,1.1.9.6,2.1,1.9,2.9,2.3.5.1-.4-.7-.5-.8Z" style="fill:#fff;"/><path d="M82.9,78.3c1.4.9,2.8,1.4,1.2,0-.8-.7-1.9-1.6-2.7-2.3-.7-.6-1.4-1.3-2.2-1.5-1.3-.2-2.4.7-3.7,1.2-.6.3-1.3.6-1.8.9-.3.2-.5.4-.5.5h0c0,.1.4.1.9,0,4.8-1.6,4.5-1.7,8.8,1.2Z" style="fill:#fff;"/><path d="M81.3,93.5c-1.4-1.2-2.8-2.5-4.2-3.7h0c-1-.8-2-1.8-3-2.5-.2-.1-.3,0-.2.2.5.8,2.2,1.9,3,2.6,1.4,1.2,2.7,2.6,4,3.8.7.7,1.7,1.4,2,1.5,0,0,.1,0,.2,0,0-.1,0-.2-.2-.4-.5-.6-1.1-1.1-1.7-1.6Z" style="fill:#fff;"/><path d="M64.6,79.3h0c-.2.6.6.8.9,1.1.2,0,.4.3.6.3,0,0,0-.2,0-.3-.3-.4-.7-1.4-1.4-1.1Z" style="fill:#fff;"/><path d="M112.5,59.7c1.7,0,3.5-.5,5.1-.6.8,0,1.5-.1,2.2.2,1.2.6,2.3,2.2,3.3,3.3.8.9,1.5,1.7,2.2,2.5,0,0,0,0,0,0-.5-1-2.7-4.4-3.8-6.3-.3-.4-.5-.9-1-1.2h0c-.2-.1-.5-.1-.8-.1-1.1,0-3.4.7-5.1,1.1-.4.1-3.6,1-2.3,1.1Z" style="fill:#fff;"/><path d="M180.5,92.5c.7-.1,1.2-.2,1.7-.3.2-.1,0-.3,0-.6-1.2-3-3-8-4.4-10.9h0c-.2-.2-.4-.2-.6-.1-4.4.6-33,6-36.7,6.2-.5-.3-1.3-1.9-1.8-2.6-1.1-1.7-2-3.3-3.1-4.8,0-.1-.1-.1-.1,0,0,0,0,.2.1.4.6,1.7,1.6,4.4,2.2,6.1.4,1,.6,2,.2,3-.2.8-.6,2.1-1,3.6-.8,2.7-1.6,5.9-2,7.2-.2.6-.2.8-.1.9,3.6-.4,37.2-6.7,45.6-8.1Z" style="fill:#fff;"/><path d="M72.8,77.5h0c-.3-.2-1.3,0-1.2.5.3.3,1.2,0,1.2-.5Z" style="fill:#fff;"/><path d="M64.1,79h0c-.2,0-.2.3,0,.3.2,0,.2-.3,0-.3Z" style="fill:#fff;"/><path d="M118.4,101.6c-.3,0-.7,0-1,.1-1.1.4-2.3.8-3.4,1.3-1,.5-.9.8.2.6.4-.1,4.7-1.5,4.3-2h0Z" style="fill:#fff;"/><path d="M86,97.8c-.1-.2-.5-.4-.7-.6-.5-.5-.8-1.3-1.6-1.4-.3,0,0,.6.4.9.5.4,1.3,1.2,1.8,1.4.2,0,.3,0,.2-.3h0Z" style="fill:#fff;"/><path d="M112.6,103.8c-1-.1-2.2.5-3.2.8-3.1,1-6.7,2.3-9.6,3.5-.6.3-1.4.6-1.8,1.1,0,.4,1.6-.4,2.6-.7,3-1.1,6.9-2.5,9.8-3.5.5-.2,2.6-.8,2.3-1.2h0Z" style="fill:#fff;"/><path d="M124.3,12.3c-40.1,0-72.7,32.5-72.7,72.7s32.5,72.7,72.7,72.7,72.7-32.5,72.7-72.7S164.4,12.3,124.3,12.3ZM108.1,57.8c2.2-.3,4.5-.7,6.7-1,4.4-.7,8.7-1.4,13.1-2,8.6-1.4,17.2-2.7,25.9-4.1,1.7-.3,3.5-.5,5.2,0,2.6.9,4.1,3.7,5.4,6.1,6.6,12.5,15.5,23.6,22.7,35.8.3.5.7,1.2.4,1.8,0,0,0,0,0,0-.3.6-1.1.8-1.8.9-16.8,2.9-33.5,5.7-50.3,8.6-1,.2-2,.3-2.9-.1-.8-.4-1.3-1.2-1.8-1.9-8.4-13.7-16.4-28.2-24.9-42.1-1.3-2.1,1-1.7,2.4-1.9ZM187.3,97.1c-.9,2.5-1.8,5-2.8,7.5-.4.9-1.4,1.1-2.3,1.2-.6.1-1.1.2-1.7.4-16.6,2.8-33.4,5.7-50,8.6-.9,0-1.9,0-2.3-.8-.7-1.1-2.4-4-3.1-5.1-.2-.3-.5-.6-.9-.5-3,.6-6,1.9-8.9,2.9-.7.3-1.4.6-2.1.9-1.6.7-3.4,1.1-5,1.7-1,.4-2,.8-3.1,1.1-2.3.7-4.6,1.7-6.9,2.4-.5.2-1.1.3-1.6.1-.4-.1-.7-.3-1-.6-5.3-4.4-10.5-9-15.8-13.5-1.3-.9-2.4-1.8-3.6-3-4.6-4.1-9.2-8.1-13.8-12.1-.6-.5-1.1-1.2-1.1-2,.2-2,1.2-4,1.8-6.1.2-.6.4-1.2.8-1.7.5-.5,1.1-.8,1.8-1.1,1.2-.5,2.8-1,4.1-1.4,10.1-3.6,20.4-6.8,30.6-10.4.7-.2,1-.5,1.3-1.1.6-1.2,1.8-4,2.4-5.1.3-.6.7-.4,1.1,0h0c.6,1,1.4,2,2,2.9.8,1.2,1.4,2.4,2,3.7.6,1.3,1.6,2.4,2.3,3.5.4.6.6,1.2.9,1.8.4.7.9,1.4,1.3,2,.8,1.4,1.6,2.7,2.4,4.2.8,1.4,1.7,2.4,2.4,3.9.6,1.2,1.6,2.2,2.2,3.4.6,1.1,1.3,2.1,1.8,3.2.4.7.7,1.4,1.1,2.1.4.7,1,1.2,1.3,1.8,1.5,2.7,3.2,5.2,4.6,7.9.9,1.2,1.4,2.5,2.2,3.8.7,1.1,2,1.2,3.2.9,17.2-2.9,34.4-6.2,51.7-8.9.5,0,.9,0,1,.3.2.4,0,.8,0,1.2Z" style="fill:#fff;"/><path d="M95.6,106.2h0c.2.7.6,1.2,1.2,1.7.3.2.7.6,1,.7-.2-.4-.6-1.1-.9-1.5-.3-.3-.8-.8-1.2-1Z" style="fill:#fff;"/><path d="M116.8,99.2h0c-.2-1.2-1.6-3.2-2.4-4.6-.5-.8-1-1.5-1.4-2.2-.5-.7-.8-1.5-1.7-1.6-.4,0-.8.1-1.2.3-1.3.4-3.6,1.3-5.1,1.7-.5.2-1,.3-1.6.3-1.6-.2-2.7-1.9-3.9-2.6-2.3-1.3.5,2.2.8,2.7.6.9.8,1.9.6,2.9-.2,2-.7,6-.9,7.8,0,.4-.1.8,0,1.1.2.3.4,0,.8,0,1.3-.4,2.5-.9,4-1.4,2.7-.9,6.4-2.2,9-3.1,1.1-.5,2.7-.6,2.8-1.4Z" style="fill:#fff;"/><path d="M86.4,98.2h0c-.4.3.9,1.5,1.3,1.5.7,0-.9-1.6-1.2-1.5Z" style="fill:#fff;"/><path d="M90.4,101.7h0c-.6-.7-1.2-1.4-1.9-1.9-.4-.2-.3.1.2.7.4.5.8.9,1.3,1.3.9.5,2.2,2,2.9,2.4.3,0,0-.3-.1-.4-.7-.7-1.6-1.3-2.3-2Z" style="fill:#fff;"/><path d="M93.7,104.6c-.6.3,1.1,1.8,1.4,1.6h0c.2-.4-.9-1.6-1.5-1.6Z" style="fill:#fff;"/></svg>